:version 1.10
:name ASF
:units
  mass 1
  length 1
  angle deg
:documentation
  ASF file generated by Kaydara
:root
  axis xyz
  order  tx ty tz rx ry rz
  position 0 0 0
  orientation 0 0 0
:bonedata
  begin
    id 1
    name SpineDummy
    direction 0.999998 -0.00179978 1.38929e-006
    length 3.60008
    axis 0 0 0 xyz
  end
  begin
    id 2
    name Spine
    direction 0.964365 0.262802 0.0305839
    length 8.13928
    axis 1.33928 -1.75354 15.2838 xyz
    dof rx ry rz
  end
  begin
    id 3
    name Spine1
    direction 0.811168 0.572065 0.12144
    length 7.14954
    axis 2.2224 -6.9761 35.2157 xyz
    dof rx ry rz
  end
  begin
    id 4
    name Neck
    direction 0 0 0
    length 0
    axis 2.2224 -6.9761 35.2157 xyz
    dof rx ry rz
  end
  begin
    id 5
    name HeadDummy
    direction 0.810939 0.572387 0.121455
    length 3.55534
    axis 2.2224 -6.9761 35.2157 xyz
  end
  begin
    id 6
    name Head
    direction 0.998226 -0.000232542 0.0595419
    length 7.35666
    axis -3.03688 -3.41352 -0.0133467 xyz
    dof rx ry rz
  end
  begin
    id 7
    name R_ClavicleDummy
    direction 0.531669 -0.194489 -0.824319
    length 2.49392
    axis 2.2224 -6.9761 35.2157 xyz
  end
  begin
    id 8
    name R_Clavicle
    direction -0.155119 0.0480802 -0.986725
    length 4.485
    axis -54.2764 80.6538 162.779 xyz
    dof rx ry rz
  end
  begin
    id 9
    name R_UpperArm
    direction -0.955567 0.200068 -0.216484
    length 10.1122
    axis -72.9943 12.5026 168.175 xyz
    dof rx ry rz
  end
  begin
    id 10
    name R_Forearm
    direction -0.61433 0.385743 0.688332
    length 9.39148
    axis -117.015 -43.4982 147.875 xyz
    dof rx ry rz
  end
  begin
    id 11
    name R_Hand
    direction -0.699429 0.0170333 0.714499
    length 3.66324
    axis -45.0303 -36.7097 175.478 xyz
    dof rx ry rz
  end
  begin
    id 12
    name L_ClavicleDummy
    direction 0.40287 -0.36502 0.839319
    length 2.49392
    axis 2.2224 -6.9761 35.2157 xyz
  end
  begin
    id 13
    name L_Clavicle
    direction -0.231271 -0.0726419 0.970174
    length 4.485
    axis 18.4357 -75.9711 -162.563 xyz
    dof rx ry rz
  end
  begin
    id 14
    name L_UpperArm
    direction -0.917494 0.144359 0.370629
    length 10.1122
    axis 56.0417 -21.7544 171.058 xyz
    dof rx ry rz
  end
  begin
    id 15
    name L_Forearm
    direction -0.496786 0.615074 -0.612281
    length 9.39148
    axis 89.8094 37.7546 128.927 xyz
    dof rx ry rz
  end
  begin
    id 16
    name L_Hand
    direction -0.409932 0.64962 -0.640274
    length 3.66324
    axis -0.424369 32.133 128.52 xyz
    dof rx ry rz
  end
  begin
    id 17
    name L_ThighDummy
    direction -1.84081e-006 1.87549e-006 1
    length 3.13049
    axis 0 0 0 xyz
  end
  begin
    id 18
    name L_Thigh
    direction -0.947739 0.307978 0.083308
    length 17.9961
    axis 173.219 -4.77873 161.998 xyz
    dof rx ry rz
  end
  begin
    id 19
    name L_Calf
    direction -0.728814 -0.684427 0.0197583
    length 13.3367
    axis 167.331 -1.13214 -136.799 xyz
    dof rx ry rz
  end
  begin
    id 20
    name L_Foot
    direction -0.9028 0.418719 0.0981191
    length 5.8674
    axis 163.436 11.5135 -155.37 xyz
    dof rx ry rz
  end
  begin
    id 21
    name L_Toe0
    direction -0.35341 0.886259 0.299411
    length 4.75286
    axis 169.316 -17.4222 111.74 xyz
    dof rx ry rz
  end
  begin
    id 22
    name R_ThighDummy
    direction 9.32778e-007 -8.82053e-007 -1
    length 3.13049
    axis 0 0 0 xyz
  end
  begin
    id 23
    name R_Thigh
    direction -0.925064 0.37528 -0.0585023
    length 17.9961
    axis -178.698 3.35385 157.919 xyz
    dof rx ry rz
  end
  begin
    id 24
    name R_Calf
    direction -0.68969 -0.718776 -0.0876886
    length 13.3367
    axis -160.504 5.03065 -133.817 xyz
    dof rx ry rz
  end
  begin
    id 25
    name R_Foot
    direction -0.857405 0.418858 -0.299022
    length 5.8674
    axis -161.328 4.38911 -154.413 xyz
    dof rx ry rz
  end
  begin
    id 26
    name R_Toe0
    direction -0.100745 0.952789 -0.286433
    length 4.75286
    axis 171.683 16.6445 96.0359 xyz
    dof rx ry rz
  end
:hierarchy
  begin
    root SpineDummy L_ThighDummy R_ThighDummy
    SpineDummy Spine
    Spine Spine1
    Spine1 Neck
    Neck HeadDummy R_ClavicleDummy L_ClavicleDummy
    HeadDummy Head
    R_ClavicleDummy R_Clavicle
    R_Clavicle R_UpperArm
    R_UpperArm R_Forearm
    R_Forearm R_Hand
    L_ClavicleDummy L_Clavicle
    L_Clavicle L_UpperArm
    L_UpperArm L_Forearm
    L_Forearm L_Hand
    L_ThighDummy L_Thigh
    L_Thigh L_Calf
    L_Calf L_Foot
    L_Foot L_Toe0
    R_ThighDummy R_Thigh
    R_Thigh R_Calf
    R_Calf R_Foot
    R_Foot R_Toe0
  end

:SAMPLES-PER-SECOND 30
:FULLY-SPECIFIED
:DEGREES
359
root  -7.03975 27.2125 11.8215 -86.9491 5.51743 85.0392
Spine  -16.0032 -17.8125 7.1676
Spine1  -11.5063 35.7071 0.982443
Neck  3.97569e-016 0 -2.38542e-015
Head  54.0207 -1.71664 6.33261
R_Clavicle  0.474766 -19.6451 4.38672
R_UpperArm  53.0503 -15.7938 63.6845
R_Forearm  35.7307 43.2011 -51.2938
R_Hand  0.864196 3.57238 2.17771
L_Clavicle  -0.450884 16.2899 4.0367
L_UpperArm  -31.9174 -16.575 26.8355
L_Forearm  18.7229 -5.12149 -5.95317
L_Hand  -0.398089 -3.07417 -18.1439
L_Thigh  -5.83377 4.64493 -27.5088
L_Calf  -0.106599 -1.01307 7.27114
L_Foot  -1.56731 -13.027 21.7193
L_Toe0  0.514547 -0.144813 3.34995
R_Thigh  -5.22693 -6.26302 21.65
R_Calf  6.47652 -3.54237 -10.9448
R_Foot  4.93528 15.0793 15.6778
R_Toe0  -1.79202 -0.27222 -17.3511
360
root  -6.63701 28.6825 10.8394 -88.3404 7.66891 86.5419
Spine  -15.9564 -19.1376 6.34736
Spine1  -12.1298 33.6858 -1.37972
Neck  3.97569e-016 0 -2.38542e-015
Head  54.396 0.531578 9.74717
R_Clavicle  0.654836 -13.1982 4.97014
R_UpperArm  58.103 -3.77869 60.8881
R_Forearm  20.015 46.0949 -59.6791
R_Hand  2.16588 7.28261 6.36226
L_Clavicle  -0.462004 12.986 3.60742
L_UpperArm  -32.1686 -24.1702 23.583
L_Forearm  18.7925 1.75752 2.02003
L_Hand  -0.328546 -3.18587 -15.7344
L_Thigh  -4.12529 4.99816 -22.3223
L_Calf  -3.13625 -0.556449 3.84863
L_Foot  0.197105 -4.38137 7.85769
L_Toe0  -5.7707 0.799178 1.25686
R_Thigh  -1.53371 -5.17764 18.1598
R_Calf  4.41469 -0.862351 -2.57552
R_Foot  3.65216 12.3332 13.604
R_Toe0  -1.72137 -0.268576 -17.1617
361
root  -6.3197 30.018 9.90205 -87.8591 9.15602 88.1469
Spine  -15.1217 -17.6963 5.50908
Spine1  -12.5055 28.7643 -4.05559
Neck  3.97569e-016 0 -2.38542e-015
Head  52.955 2.10649 11.7698
R_Clavicle  0.719551 -6.5772 4.27673
R_UpperArm  64.5837 9.78718 60.211
R_Forearm  10.5907 46.9228 -62.6879
R_Hand  3.66516 11.0761 9.93679
L_Clavicle  -0.462318 8.98968 3.43344
L_UpperArm  -26.0336 -31.5271 14.9048
L_Forearm  19.8411 10.048 11.7985
L_Hand  -0.388519 -2.49396 -14.4225
L_Thigh  -0.458717 5.01908 -14.4267
L_Calf  -3.59824 0.393605 -3.15593
L_Foot  1.50456 3.52231 2.42305
L_Toe0  -2.36224 0.0930259 -4.84768
R_Thigh  -0.643517 -3.46141 14.1206
R_Calf  3.8087 1.74384 5.53005
R_Foot  3.5582 12.096 9.04808
R_Toe0  -1.39048 -0.21651 -15.2764
362
root  -5.99912 31.0577 8.8272 -86.3523 8.91199 89.048
Spine  -13.7813 -13.394 3.84192
Spine1  -12.1039 18.852 -4.26607
Neck  3.97569e-016 0 -2.38542e-015
Head  50.1442 3.8505 12.7634
R_Clavicle  0.443091 0.686672 1.94626
R_UpperArm  69.6643 19.8669 59.8173
R_Forearm  2.69377 46.6493 -61.6536
R_Hand  5.46205 13.9696 14.9695
L_Clavicle  -0.423306 3.70767 2.87146
L_UpperArm  -16.6365 -36.9862 2.50313
L_Forearm  21.079 17.6485 21.5727
L_Hand  -0.464412 -1.73496 -13.7723
L_Thigh  2.04224 4.85557 -6.84581
L_Calf  -3.13258 1.12067 -8.47838
L_Foot  2.55308 5.09162 5.26328
L_Toe0  0.772365 0.0250682 -6.29006
R_Thigh  -1.28396 -2.16502 9.43886
R_Calf  3.63046 3.19137 10.0638
R_Foot  3.24156 11.1592 3.80469
R_Toe0  -1.07245 -0.0860949 -9.82633
363
root  -5.57032 31.7928 7.56937 -84.6682 7.39545 88.4542
Spine  -12.7349 -9.30525 2.18912
Spine1  -11.565 6.9509 -2.96139
Neck  3.97569e-016 0 -2.38542e-015
Head  46.9904 5.3617 14.661
R_Clavicle  0.795786 8.99305 4.19695
R_UpperArm  68.6187 27.2974 53.7871
R_Forearm  -2.61113 44.0506 -53.5042
R_Hand  6.76747 14.3601 20.6711
L_Clavicle  -0.15195 -1.69289 1.21935
L_UpperArm  -8.21524 -39.6584 -8.82481
L_Forearm  22.3994 23.5887 30.2211
L_Hand  -0.478087 -1.43243 -13.1303
L_Thigh  1.16855 4.49285 -0.232105
L_Calf  -2.51199 1.11958 -8.42678
L_Foot  2.51974 2.17837 8.76877
L_Toe0  0.505156 0.0344479 -6.1361
R_Thigh  -1.24637 -2.23845 4.35788
R_Calf  1.79883 3.20573 10.0582
R_Foot  2.98418 10.0726 -1.57868
R_Toe0  -0.0316568 -0.0467046 -1.25204
364
root  -5.06052 32.1185 6.26343 -83.1803 5.67533 87.1704
Spine  -11.813 -7.22783 1.98069
Spine1  -10.9054 -2.77264 -2.55259
Neck  3.97569e-016 0 -2.38542e-015
Head  43.9709 6.72367 17.2841
R_Clavicle  0.263777 19.9576 1.29021
R_UpperArm  61.4028 32.3111 39.8668
R_Forearm  -5.19836 37.4573 -39.5608
R_Hand  7.48183 13.955 24.827
L_Clavicle  0.318015 -6.7392 -0.678491
L_UpperArm  -5.4477 -39.9379 -18.1623
L_Forearm  25.4125 29.0706 36.8454
L_Hand  -0.457041 -1.29048 -12.1315
L_Thigh  -3.11377 4.02747 5.74825
L_Calf  -1.17882 0.44098 -3.38483
L_Foot  1.93286 0.165775 9.11157
L_Toe0  0.505156 0.0345694 -6.1361
R_Thigh  -1.08727 -2.17092 -0.872287
R_Calf  0.227702 2.013 6.25578
R_Foot  2.65135 8.61359 -4.21149
R_Toe0  1.25446 -0.347677 0.468191
365
root  -4.55357 32.0523 4.95204 -81.7216 4.34235 85.5089
Spine  -10.6841 -6.42744 2.84476
Spine1  -9.78435 -10.5263 -3.10494
Neck  3.97569e-016 0 -2.38542e-015
Head  40.7471 8.60805 18.6698
R_Clavicle  2.29618 29.1471 6.52549
R_UpperArm  53.197 36.3306 24.2769
R_Forearm  -7.44642 26.5097 -24.5097
R_Hand  7.57986 13.4298 26.3699
L_Clavicle  0.603766 -10.6674 -1.31301
L_UpperArm  -11.2813 -38.8454 -28.1882
L_Forearm  32.8776 35.2023 40.8618
L_Hand  -0.438044 -0.916934 -10.6882
L_Thigh  -9.14053 2.79706 11.135
L_Calf  2.18563 -0.597179 4.27935
L_Foot  1.36934 0.242831 6.36277
L_Toe0  0.505156 0.0348402 -6.13609
R_Thigh  -1.58375 -1.77634 -6.43023
R_Calf  0.323417 0.141119 0.435024
R_Foot  2.08543 6.59942 -3.0903
R_Toe0  1.73524 -0.468138 -10.3867
366
root  -4.11982 31.7325 3.67488 -79.8683 3.85451 83.4907
Spine  -9.43165 -5.45931 3.58838
Spine1  -8.51213 -17.8775 -3.72434
Neck  3.97569e-016 0 -2.38542e-015
Head  37.4863 10.4252 18.5757
R_Clavicle  3.37027 33.2488 8.45972
R_UpperArm  44.6255 41.5076 12.1593
R_Forearm  -9.47619 12.0731 -10.2627
R_Hand  7.01601 13.133 24.2614
L_Clavicle  0.672684 -11.1486 -1.57279
L_UpperArm  -12.5302 -36.8705 -38.0209
L_Forearm  34.9954 36.915 43.3716
L_Hand  -0.419435 -0.487963 -9.37293
L_Thigh  -16.6931 0.6187 16.3112
L_Calf  7.35474 -1.77843 13.091
L_Foot  -0.598251 -2.59182 -0.0237597
L_Toe0  0.505156 0.0352157 -6.13609
R_Thigh  -1.38594 -2.1279 -11.8574
R_Calf  2.35328 -1.22165 -3.80639
R_Foot  1.19293 3.03272 -3.5555
R_Toe0  0.819611 -0.277926 -16.3333
367
root  -3.8362 31.1003 2.31899 -77.9602 4.27299 82.3911
Spine  -7.57329 -2.67078 2.87333
Spine1  -7.12722 -25.4401 -3.2436
Neck  3.97569e-016 0 -2.38542e-015
Head  34.4136 11.2349 17.8437
R_Clavicle  3.65848 34.3735 8.93518
R_UpperArm  34.4099 46.1018 1.81468
R_Forearm  -10.8551 -4.6284 3.94328
R_Hand  6.05217 13.4924 18.7663
L_Clavicle  0.809514 -9.26998 -2.53455
L_UpperArm  -12.1427 -33.7742 -44.7762
L_Forearm  32.7842 35.6075 42.5476
L_Hand  -0.424839 -0.165396 -8.91416
L_Thigh  -28.3059 -0.978683 20.8225
L_Calf  11.9828 -2.9359 21.9528
L_Foot  -3.43803 -9.28302 -9.62698
L_Toe0  0.505156 0.0356516 -6.13609
R_Thigh  -0.332535 -2.54151 -16.407
R_Calf  7.24031 -1.57611 -4.91572
R_Foot  0.400558 -0.812966 -5.26901
R_Toe0  1.16806 -0.348958 -15.5855
368
root  -3.72652 29.9994 0.702618 -76.9008 4.71718 82.6976
Spine  -4.72409 1.70813 1.44092
Spine1  -5.19362 -32.6576 -2.48366
Neck  3.97569e-016 0 -2.38542e-015
Head  31.6567 10.9908 17.2566
R_Clavicle  3.18995 35.2671 7.86988
R_UpperArm  27.8948 47.9114 -6.6002
R_Forearm  -15.2194 -21.8623 18.3201
R_Hand  4.99018 13.6931 13.0308
L_Clavicle  0.968227 -7.3023 -3.79264
L_UpperArm  -11.7041 -29.9218 -48.5775
L_Forearm  28.622 33.0737 40.2629
L_Hand  -0.467375 0.278991 -9.03594
L_Thigh  -40.9816 -1.74506 24.0274
L_Calf  14.0827 -3.57817 26.9988
L_Foot  -4.69804 -11.49 -18.0972
L_Toe0  0.505156 0.0361035 -6.13608
R_Thigh  -0.318635 -2.42876 -20.7221
R_Calf  14.4099 -0.929286 -2.90623
R_Foot  -0.0996235 -3.03494 -5.57419
R_Toe0  10.497 -1.86557 -9.92363
369
root  -3.73166 28.5232 -1.03866 -76.4642 4.18345 82.9747
Spine  -1.6769 5.19232 1.69692
Spine1  -2.54493 -37.7168 -3.26089
Neck  3.97569e-016 0 -2.38542e-015
Head  30.1487 10.0213 16.9885
R_Clavicle  1.80388 35.2956 4.99965
R_UpperArm  33.226 47.9603 -10.3065
R_Forearm  -27.1759 -36.7406 30.5772
R_Hand  4.30506 13.1481 10.2629
L_Clavicle  0.910193 -5.31711 -4.10784
L_UpperArm  -10.1349 -26.3876 -51.2567
L_Forearm  25.0042 31.1452 38.4671
L_Hand  -0.480957 0.787127 -8.53057
L_Thigh  -42.5043 -3.30932 27.6432
L_Calf  11.4538 -3.09742 23.0656
L_Foot  -3.69055 -0.227888 -19.5241
L_Toe0  0.505156 0.036527 -6.13608
R_Thigh  -0.76719 -3.14603 -25.6926
R_Calf  20.9532 0.0237653 0.0537769
R_Foot  -0.273862 -2.13279 -2.39925
R_Toe0  20.7986 -5.73759 -3.99016
370
root  -3.81243 26.9244 -2.73663 -75.6032 2.50577 82.3187
Spine  0.511088 6.55254 3.7439
Spine1  -0.309155 -39.7493 -4.6153
Neck  3.97569e-016 0 -2.38542e-015
Head  30.9998 8.49215 16.305
R_Clavicle  1.22543 32.628 3.89288
R_UpperArm  34.9076 48.4807 -11.4337
R_Forearm  -33.5388 -41.7026 39.541
R_Hand  4.0283 12.2627 10.1012
L_Clavicle  0.744181 -4.30834 -3.52398
L_UpperArm  -7.32817 -24.7607 -53.4851
L_Forearm  23.0949 29.6724 37.2594
L_Hand  -0.41086 1.07676 -6.96193
L_Thigh  -34.1426 -6.30237 32.5946
L_Calf  3.35972 -1.35868 10.03
L_Foot  0.682114 22.7028 -12.3904
L_Toe0  0.505156 0.0368776 -6.13608
R_Thigh  1.7863 -5.75336 -31.2404
R_Calf  21.7672 0.0438982 0.149797
R_Foot  1.00763 4.27703 3.77301
R_Toe0  24.0306 -7.82493 -3.1684
